<svg width="502" height="73" viewBox="0 0 502 73" fill="none" xmlns="http://www.w3.org/2000/svg">
<rect width="502" height="73" rx="8" fill="white"/>
<path d="M33.12 43H34.248V34.104L38.344 43H39.104L43.208 34.104V42.992H44.328V31.48H43.232L38.728 41.168L34.2 31.48H33.12V43ZM49.2451 43.24C50.7545 43.24 51.8505 42.6827 52.5331 41.568V43H53.5811V37.632C53.5811 37.312 53.5651 36.9973 53.5331 36.688C53.5011 36.3787 53.4318 36.0987 53.3251 35.848C53.0958 35.288 52.7038 34.8613 52.1491 34.568C51.5998 34.2693 50.9305 34.12 50.1411 34.12C49.1918 34.12 48.4185 34.3333 47.8211 34.76C47.2238 35.1867 46.8238 35.7867 46.6211 36.56L47.7651 36.896C47.9305 36.32 48.2158 35.8987 48.6211 35.632C49.0318 35.3653 49.5331 35.232 50.1251 35.232C50.9465 35.232 51.5331 35.424 51.8851 35.808C52.2371 36.1867 52.4185 36.7653 52.4291 37.544C52.0451 37.5973 51.6211 37.6533 51.1571 37.712C50.6985 37.7707 50.2371 37.8373 49.7731 37.912C49.3091 37.9867 48.8825 38.072 48.4931 38.168C47.8478 38.3387 47.3198 38.624 46.9091 39.024C46.4985 39.4187 46.2931 39.9707 46.2931 40.68C46.2931 41.1387 46.4025 41.5627 46.6211 41.952C46.8398 42.3413 47.1678 42.6533 47.6051 42.888C48.0478 43.1227 48.5945 43.24 49.2451 43.24ZM49.3811 42.224C48.9171 42.224 48.5438 42.1493 48.2611 42C47.9838 41.8453 47.7811 41.6507 47.6531 41.416C47.5305 41.176 47.4691 40.9307 47.4691 40.68C47.4691 40.2107 47.6265 39.8587 47.9411 39.624C48.2558 39.3893 48.5971 39.2187 48.9651 39.112C49.4398 38.984 49.9918 38.88 50.6211 38.8C51.2505 38.72 51.8478 38.6453 52.4131 38.576C52.4131 38.7733 52.4051 39 52.3891 39.256C52.3785 39.5067 52.3491 39.7387 52.3011 39.952C52.1891 40.6027 51.8798 41.144 51.3731 41.576C50.8718 42.008 50.2078 42.224 49.3811 42.224ZM56.0237 32.72H57.1997V31.4H56.0237V32.72ZM56.0237 43H57.1997V34.36H56.0237V43ZM59.9581 43H61.1341V31.24H59.9581V43ZM67.1276 43H68.1836V41.792C68.493 42.24 68.885 42.5947 69.3596 42.856C69.8343 43.112 70.3863 43.24 71.0156 43.24C71.8263 43.24 72.517 43.04 73.0876 42.64C73.6583 42.2347 74.093 41.688 74.3916 41C74.6956 40.312 74.8476 39.536 74.8476 38.672C74.8476 37.8133 74.6956 37.04 74.3916 36.352C74.093 35.664 73.661 35.12 73.0956 34.72C72.5303 34.32 71.853 34.12 71.0636 34.12C70.4663 34.12 69.9356 34.232 69.4716 34.456C69.013 34.6747 68.6263 34.9813 68.3116 35.376V31.48H67.1276V43ZM70.8956 42.144C70.2823 42.144 69.7756 41.9947 69.3756 41.696C68.9756 41.392 68.677 40.9787 68.4796 40.456C68.2823 39.9333 68.1836 39.3387 68.1836 38.672C68.1836 37.6533 68.405 36.824 68.8476 36.184C69.2956 35.5387 69.9703 35.216 70.8716 35.216C71.4903 35.216 71.9996 35.368 72.3996 35.672C72.805 35.976 73.1063 36.3893 73.3036 36.912C73.501 37.4347 73.5996 38.0213 73.5996 38.672C73.5996 39.328 73.4983 39.9173 73.2956 40.44C73.0983 40.9627 72.7996 41.3787 72.3996 41.688C71.9996 41.992 71.4983 42.144 70.8956 42.144ZM81.2364 32.672H82.5164V31.392H81.2364V32.672ZM78.1884 32.672H79.4684V31.392H78.1884V32.672ZM80.1084 43.216C80.727 43.216 81.2844 43.0987 81.7804 42.864C82.2817 42.624 82.6924 42.2693 83.0124 41.8V43H84.0684V34.36H82.8924V38.968C82.8924 39.944 82.6737 40.7093 82.2364 41.264C81.799 41.8187 81.1644 42.096 80.3324 42.096C79.7297 42.096 79.2444 41.952 78.8764 41.664C78.5084 41.3707 78.2417 40.9733 78.0764 40.472C77.911 39.9707 77.8284 39.4027 77.8284 38.768V34.36H76.6444V39.112C76.6444 39.5973 76.703 40.0827 76.8204 40.568C76.943 41.0533 77.1377 41.496 77.4044 41.896C77.671 42.296 78.0257 42.616 78.4684 42.856C78.9164 43.096 79.463 43.216 80.1084 43.216ZM86.6644 43H87.8404V31.24H86.6644V43ZM95.1427 43V41.968C94.5241 42.0693 94.0041 42.0853 93.5827 42.016C93.1667 41.9467 92.8627 41.7333 92.6707 41.376C92.5694 41.1893 92.5134 40.976 92.5027 40.736C92.4974 40.4907 92.4947 40.1867 92.4947 39.824V35.368H95.1427V34.36H92.4947V31.96H91.3267V34.36H89.4787V35.368H91.3267V39.872C91.3267 40.2933 91.3321 40.6693 91.3427 41C91.3587 41.3307 91.4441 41.6533 91.5987 41.968C91.7907 42.352 92.0707 42.6347 92.4387 42.816C92.8121 42.9973 93.2334 43.0987 93.7027 43.12C94.1774 43.1413 94.6574 43.1013 95.1427 43ZM100.388 43.24C101.226 43.24 101.975 43.0347 102.636 42.624C103.303 42.2133 103.807 41.6293 104.148 40.872L103.052 40.448C102.503 41.5573 101.599 42.112 100.34 42.112C99.4765 42.112 98.7992 41.8427 98.3085 41.304C97.8232 40.7653 97.5565 40 97.5085 39.008H104.316C104.359 37.4827 104.026 36.288 103.316 35.424C102.612 34.5547 101.62 34.12 100.34 34.12C99.5085 34.12 98.7858 34.3067 98.1725 34.68C97.5645 35.0533 97.0925 35.584 96.7565 36.272C96.4205 36.96 96.2525 37.776 96.2525 38.72C96.2525 39.632 96.4205 40.4267 96.7565 41.104C97.0978 41.7813 97.5778 42.3067 98.1965 42.68C98.8205 43.0533 99.5512 43.24 100.388 43.24ZM100.372 35.2C101.999 35.2 102.903 36.1413 103.084 38.024H97.5325C97.6232 37.112 97.9112 36.4133 98.3965 35.928C98.8818 35.4427 99.5405 35.2 100.372 35.2ZM106.05 43H107.234V38.392C107.234 37.416 107.452 36.6507 107.89 36.096C108.327 35.5413 108.962 35.264 109.794 35.264C110.396 35.264 110.882 35.4107 111.25 35.704C111.618 35.992 111.884 36.3867 112.05 36.888C112.215 37.3893 112.298 37.9573 112.298 38.592V43H113.482V38.248C113.482 37.7627 113.42 37.2773 113.298 36.792C113.18 36.3067 112.988 35.864 112.722 35.464C112.455 35.064 112.1 34.744 111.658 34.504C111.215 34.264 110.668 34.144 110.018 34.144C109.399 34.144 108.839 34.264 108.338 34.504C107.842 34.7387 107.434 35.0907 107.114 35.56V34.36H106.05V43ZM115.917 32.72H117.093V31.4H115.917V32.72ZM115.917 43H117.093V34.36H115.917V43ZM119.684 43H120.868V37.424C120.868 36.7467 121.052 36.2053 121.42 35.8C121.788 35.3893 122.271 35.184 122.868 35.184C123.465 35.184 123.945 35.384 124.308 35.784C124.676 36.1787 124.86 36.72 124.86 37.408L124.852 43H126.012L126.02 37.424C126.02 36.8853 126.119 36.4533 126.316 36.128C126.519 35.7973 126.775 35.5573 127.084 35.408C127.393 35.2587 127.711 35.184 128.036 35.184C128.607 35.184 129.076 35.376 129.444 35.76C129.817 36.1387 130.004 36.6613 130.004 37.328L129.996 43H131.172L131.18 37.104C131.18 36.192 130.919 35.4693 130.396 34.936C129.879 34.3973 129.183 34.128 128.308 34.128C127.732 34.128 127.215 34.2587 126.756 34.52C126.297 34.776 125.943 35.1307 125.692 35.584C125.457 35.1093 125.119 34.7493 124.676 34.504C124.239 34.2533 123.737 34.128 123.172 34.128C122.66 34.128 122.193 34.232 121.772 34.44C121.351 34.6427 121.007 34.92 120.74 35.272V34.36H119.684V43ZM133.614 32.72H134.79V31.4H133.614V32.72ZM133.614 43H134.79V34.36H133.614V43ZM136.589 43H143.797V41.904H138.533L144.101 34.632V34.36H137.005V35.456H142.165L136.589 42.752V43ZM149.073 43.24C149.91 43.24 150.66 43.0347 151.321 42.624C151.988 42.2133 152.492 41.6293 152.833 40.872L151.737 40.448C151.188 41.5573 150.284 42.112 149.025 42.112C148.161 42.112 147.484 41.8427 146.993 41.304C146.508 40.7653 146.241 40 146.193 39.008H153.001C153.044 37.4827 152.71 36.288 152.001 35.424C151.297 34.5547 150.305 34.12 149.025 34.12C148.193 34.12 147.47 34.3067 146.857 34.68C146.249 35.0533 145.777 35.584 145.441 36.272C145.105 36.96 144.937 37.776 144.937 38.72C144.937 39.632 145.105 40.4267 145.441 41.104C145.782 41.7813 146.262 42.3067 146.881 42.68C147.505 43.0533 148.236 43.24 149.073 43.24ZM149.057 35.2C150.684 35.2 151.588 36.1413 151.769 38.024H146.217C146.308 37.112 146.596 36.4133 147.081 35.928C147.566 35.4427 148.225 35.2 149.057 35.2ZM158.371 43H159.563V38.84L163.803 43H165.515L160.939 38.68L164.987 34.36H163.419L159.563 38.52V31.48H158.379L158.371 43ZM168.989 43.24C170.498 43.24 171.594 42.6827 172.277 41.568V43H173.325V37.632C173.325 37.312 173.309 36.9973 173.277 36.688C173.245 36.3787 173.176 36.0987 173.069 35.848C172.84 35.288 172.448 34.8613 171.893 34.568C171.344 34.2693 170.674 34.12 169.885 34.12C168.936 34.12 168.162 34.3333 167.565 34.76C166.968 35.1867 166.568 35.7867 166.365 36.56L167.509 36.896C167.674 36.32 167.96 35.8987 168.365 35.632C168.776 35.3653 169.277 35.232 169.869 35.232C170.69 35.232 171.277 35.424 171.629 35.808C171.981 36.1867 172.162 36.7653 172.173 37.544C171.789 37.5973 171.365 37.6533 170.901 37.712C170.442 37.7707 169.981 37.8373 169.517 37.912C169.053 37.9867 168.626 38.072 168.237 38.168C167.592 38.3387 167.064 38.624 166.653 39.024C166.242 39.4187 166.037 39.9707 166.037 40.68C166.037 41.1387 166.146 41.5627 166.365 41.952C166.584 42.3413 166.912 42.6533 167.349 42.888C167.792 43.1227 168.338 43.24 168.989 43.24ZM169.125 42.224C168.661 42.224 168.288 42.1493 168.005 42C167.728 41.8453 167.525 41.6507 167.397 41.416C167.274 41.176 167.213 40.9307 167.213 40.68C167.213 40.2107 167.37 39.8587 167.685 39.624C168 39.3893 168.341 39.2187 168.709 39.112C169.184 38.984 169.736 38.88 170.365 38.8C170.994 38.72 171.592 38.6453 172.157 38.576C172.157 38.7733 172.149 39 172.133 39.256C172.122 39.5067 172.093 39.7387 172.045 39.952C171.933 40.6027 171.624 41.144 171.117 41.576C170.616 42.008 169.952 42.224 169.125 42.224ZM176.355 46.84H177.531L182.171 34.36H180.971L178.355 41.464L175.515 34.36H174.267L177.779 42.976L176.355 46.84ZM183.921 43H185.097V34.36H183.921V43ZM192.399 43V41.968C191.78 42.0693 191.26 42.0853 190.839 42.016C190.423 41.9467 190.119 41.7333 189.927 41.376C189.826 41.1893 189.77 40.976 189.759 40.736C189.754 40.4907 189.751 40.1867 189.751 39.824V35.368H192.399V34.36H189.751V31.96H188.583V34.36H186.735V35.368H188.583V39.872C188.583 40.2933 188.588 40.6693 188.599 41C188.615 41.3307 188.7 41.6533 188.855 41.968C189.047 42.352 189.327 42.6347 189.695 42.816C190.068 42.9973 190.49 43.0987 190.959 43.12C191.434 43.1413 191.914 43.1013 192.399 43ZM201.312 43.24C202.166 43.24 202.896 43.048 203.504 42.664C204.118 42.28 204.587 41.7467 204.912 41.064C205.243 40.376 205.408 39.5787 205.408 38.672C205.408 37.7813 205.246 36.9947 204.92 36.312C204.6 35.624 204.134 35.088 203.52 34.704C202.912 34.3147 202.176 34.12 201.312 34.12C200.47 34.12 199.742 34.312 199.128 34.696C198.52 35.0747 198.051 35.6053 197.72 36.288C197.39 36.9707 197.224 37.7653 197.224 38.672C197.224 39.5627 197.384 40.352 197.704 41.04C198.03 41.728 198.496 42.2667 199.104 42.656C199.718 43.0453 200.454 43.24 201.312 43.24ZM201.312 42.112C200.379 42.112 199.672 41.8 199.192 41.176C198.712 40.5467 198.472 39.712 198.472 38.672C198.472 37.664 198.704 36.8427 199.168 36.208C199.632 35.568 200.347 35.248 201.312 35.248C202.267 35.248 202.979 35.56 203.448 36.184C203.923 36.8027 204.16 37.632 204.16 38.672C204.16 39.6907 203.926 40.52 203.456 41.16C202.987 41.7947 202.272 42.112 201.312 42.112ZM207.533 43H208.709V31.24H207.533V43Z" fill="black" fill-opacity="0.4"/>
<rect x="360" y="6" width="136" height="61" rx="8" fill="#F84646"/>
<path d="M398.12 43H400.048V37.624L404.904 43H407.352L402.064 37.128L407.016 31.48H404.648L400.048 36.824V31.48H398.12V43ZM411.095 43.24C411.783 43.24 412.367 43.128 412.847 42.904C413.333 42.6747 413.759 42.32 414.127 41.84V43H415.815V37.696C415.815 37.3227 415.799 36.9787 415.767 36.664C415.735 36.344 415.642 36.032 415.487 35.728C415.205 35.1573 414.77 34.7467 414.183 34.496C413.602 34.2453 412.927 34.12 412.159 34.12C411.146 34.12 410.338 34.3413 409.735 34.784C409.133 35.2267 408.725 35.8133 408.511 36.544L410.271 37.096C410.415 36.6533 410.669 36.3413 411.031 36.16C411.394 35.9787 411.77 35.888 412.159 35.888C412.746 35.888 413.178 36.008 413.455 36.248C413.733 36.4827 413.89 36.848 413.927 37.344C413.17 37.456 412.466 37.5653 411.815 37.672C411.17 37.7733 410.621 37.8987 410.167 38.048C409.485 38.2827 408.986 38.616 408.671 39.048C408.357 39.4747 408.199 40.0027 408.199 40.632C408.199 41.1067 408.309 41.5413 408.527 41.936C408.751 42.3307 409.079 42.648 409.511 42.888C409.943 43.1227 410.471 43.24 411.095 43.24ZM411.479 41.704C411.026 41.704 410.679 41.6 410.439 41.392C410.205 41.184 410.087 40.9227 410.087 40.608C410.087 40.3253 410.178 40.096 410.359 39.92C410.546 39.744 410.805 39.5947 411.135 39.472C411.439 39.3707 411.805 39.2827 412.231 39.208C412.658 39.128 413.215 39.0347 413.903 38.928C413.898 39.1307 413.885 39.3573 413.863 39.608C413.842 39.8533 413.791 40.0747 413.711 40.272C413.647 40.4693 413.522 40.68 413.335 40.904C413.154 41.128 412.909 41.3173 412.599 41.472C412.29 41.6267 411.917 41.704 411.479 41.704ZM418.75 46.84H420.558L425.374 34.36H423.446L421.102 40.544L418.686 34.36H416.678L420.174 42.936L418.75 46.84ZM426.927 43H428.855V34.36H426.927V43ZM436.515 43V41.384C435.977 41.464 435.497 41.4853 435.075 41.448C434.654 41.4107 434.347 41.232 434.155 40.912C434.054 40.7467 433.998 40.5333 433.987 40.272C433.982 40.0053 433.979 39.7013 433.979 39.36V35.872H436.515V34.36H433.979V31.96H432.059V34.36H430.491V35.872H432.059V39.472C432.059 39.968 432.065 40.4107 432.075 40.8C432.086 41.184 432.19 41.5627 432.387 41.936C432.611 42.3467 432.939 42.648 433.371 42.84C433.803 43.0267 434.291 43.1253 434.835 43.136C435.385 43.152 435.945 43.1067 436.515 43ZM446.848 43.24C448 43.24 448.987 42.9893 449.808 42.488C450.635 41.9813 451.267 41.2773 451.704 40.376C452.147 39.4747 452.368 38.4293 452.368 37.24C452.368 36.0453 452.147 35 451.704 34.104C451.267 33.2027 450.635 32.5013 449.808 32C448.987 31.4933 448 31.24 446.848 31.24C445.702 31.24 444.715 31.4933 443.888 32C443.067 32.5013 442.435 33.2027 441.992 34.104C441.555 35 441.336 36.0453 441.336 37.24C441.336 38.4293 441.555 39.4747 441.992 40.376C442.435 41.2773 443.067 41.9813 443.888 42.488C444.715 42.9893 445.702 43.24 446.848 43.24ZM446.848 41.424C445.691 41.408 444.822 41.0213 444.24 40.264C443.659 39.5067 443.371 38.4987 443.376 37.24C443.382 36.3973 443.512 35.6613 443.768 35.032C444.024 34.4027 444.408 33.9147 444.92 33.568C445.432 33.216 446.075 33.0453 446.848 33.056C448.011 33.072 448.88 33.4587 449.456 34.216C450.038 34.9733 450.328 35.9813 450.328 37.24C450.328 38.0773 450.198 38.8133 449.936 39.448C449.68 40.0773 449.294 40.5653 448.776 40.912C448.264 41.2587 447.622 41.4293 446.848 41.424ZM454.321 43H456.249V31.24H454.321V43Z" fill="white"/>
</svg>
